<mxfile host="app.diagrams.net" modified="2023-05-25T03:22:01.448Z" agent="Mozilla/5.0 (Macintosh; Intel Mac OS X 10_15_7) AppleWebKit/537.36 (KHTML, like Gecko) Chrome/113.0.0.0 Safari/537.36" etag="WsIBKbIHm56JuLDxBFHS" version="21.3.3" type="device">
  <diagram id="bLKValZtgEhsf_qZUm0z" name="1">
    <mxGraphModel dx="666" dy="330" grid="1" gridSize="10" guides="1" tooltips="1" connect="1" arrows="1" fold="1" page="1" pageScale="1" pageWidth="827" pageHeight="1169" math="0" shadow="0">
      <root>
        <mxCell id="0" />
        <mxCell id="1" parent="0" />
        <mxCell id="9VtdKncW4o68JJ42P7iB-4" value="" style="group" vertex="1" connectable="0" parent="1">
          <mxGeometry x="111" y="659" width="449" height="120" as="geometry" />
        </mxCell>
        <mxCell id="U0FOJSvKqeGuuWeJRaHo-54" value="" style="rounded=0;whiteSpace=wrap;html=1;fontFamily=Helvetica;fontSize=14;opacity=80;strokeColor=#67c5f4;fillColor=#edf7f3;" vertex="1" parent="9VtdKncW4o68JJ42P7iB-4">
          <mxGeometry width="449" height="120" as="geometry" />
        </mxCell>
        <mxCell id="zOyWCexYzGYS8uX46i4J-4" value="&lt;font style=&quot;font-size: 12px;&quot;&gt;续费1个月（¥40&lt;/font&gt;&lt;font style=&quot;font-size: 11px;&quot;&gt;）&lt;/font&gt;" style="rounded=0;whiteSpace=wrap;html=1;fillColor=none;strokeColor=#ee9b4f;opacity=75;" parent="9VtdKncW4o68JJ42P7iB-4" vertex="1">
          <mxGeometry x="329" y="11" width="110" height="30" as="geometry" />
        </mxCell>
        <mxCell id="U0FOJSvKqeGuuWeJRaHo-14" value="消费预估" style="rounded=0;whiteSpace=wrap;html=1;fillColor=#99CCFF;strokeColor=#007fff;opacity=59;gradientColor=none;" vertex="1" parent="9VtdKncW4o68JJ42P7iB-4">
          <mxGeometry x="294" y="90" width="70" height="20" as="geometry" />
        </mxCell>
        <mxCell id="U0FOJSvKqeGuuWeJRaHo-16" value="&lt;font style=&quot;font-size: 12px;&quot; color=&quot;#333333&quot;&gt;新购12个月（¥240）&lt;/font&gt;" style="rounded=0;whiteSpace=wrap;html=1;fillColor=none;strokeColor=#23aa72;fontColor=#ffffff;opacity=85;" vertex="1" parent="9VtdKncW4o68JJ42P7iB-4">
          <mxGeometry x="9" y="11" width="320" height="30" as="geometry" />
        </mxCell>
        <mxCell id="U0FOJSvKqeGuuWeJRaHo-17" value="" style="endArrow=none;html=1;rounded=0;fontFamily=Helvetica;fontSize=12;fontColor=#ffffff;dashed=1;strokeColor=#007FFF;" edge="1" parent="9VtdKncW4o68JJ42P7iB-4">
          <mxGeometry x="1" y="-150" width="50" height="50" relative="1" as="geometry">
            <mxPoint x="299" y="68" as="sourcePoint" />
            <mxPoint x="299" y="38" as="targetPoint" />
            <mxPoint as="offset" />
          </mxGeometry>
        </mxCell>
        <mxCell id="U0FOJSvKqeGuuWeJRaHo-18" value="" style="endArrow=none;html=1;rounded=0;fontFamily=Helvetica;fontSize=12;fontColor=#ffffff;dashed=1;strokeColor=#007FFF;" edge="1" parent="9VtdKncW4o68JJ42P7iB-4">
          <mxGeometry x="1" y="-150" width="50" height="50" relative="1" as="geometry">
            <mxPoint x="358" y="69" as="sourcePoint" />
            <mxPoint x="298" y="69" as="targetPoint" />
            <mxPoint as="offset" />
          </mxGeometry>
        </mxCell>
        <mxCell id="U0FOJSvKqeGuuWeJRaHo-19" value="&lt;font style=&quot;font-size: 10px;&quot;&gt;15天&lt;/font&gt;" style="text;html=1;strokeColor=none;fillColor=none;align=center;verticalAlign=middle;whiteSpace=wrap;rounded=0;" vertex="1" parent="9VtdKncW4o68JJ42P7iB-4">
          <mxGeometry x="298" y="41" width="30" height="30" as="geometry" />
        </mxCell>
        <mxCell id="U0FOJSvKqeGuuWeJRaHo-20" value="" style="endArrow=none;html=1;rounded=0;fontFamily=Helvetica;fontSize=12;fontColor=#ffffff;strokeColor=#007FFF;startArrow=classic;startFill=1;" edge="1" parent="9VtdKncW4o68JJ42P7iB-4">
          <mxGeometry x="1" y="-150" width="50" height="50" relative="1" as="geometry">
            <mxPoint x="329" y="90" as="sourcePoint" />
            <mxPoint x="328.6" y="69" as="targetPoint" />
            <mxPoint as="offset" />
          </mxGeometry>
        </mxCell>
        <mxCell id="U0FOJSvKqeGuuWeJRaHo-22" value="12月" style="text;html=1;strokeColor=none;fillColor=none;align=center;verticalAlign=middle;whiteSpace=wrap;rounded=0;" vertex="1" parent="9VtdKncW4o68JJ42P7iB-4">
          <mxGeometry x="262" y="41" width="30" height="30" as="geometry" />
        </mxCell>
        <mxCell id="U0FOJSvKqeGuuWeJRaHo-28" value="" style="endArrow=none;html=1;rounded=0;fontFamily=Helvetica;fontSize=12;fontColor=#ffffff;dashed=1;strokeColor=#007FFF;" edge="1" parent="9VtdKncW4o68JJ42P7iB-4">
          <mxGeometry x="1" y="-150" width="50" height="50" relative="1" as="geometry">
            <mxPoint x="359" y="68" as="sourcePoint" />
            <mxPoint x="359" y="38" as="targetPoint" />
            <mxPoint as="offset" />
          </mxGeometry>
        </mxCell>
        <mxCell id="U0FOJSvKqeGuuWeJRaHo-29" value="&lt;font style=&quot;font-size: 10px;&quot;&gt;15天&lt;/font&gt;" style="text;html=1;strokeColor=none;fillColor=none;align=center;verticalAlign=middle;whiteSpace=wrap;rounded=0;" vertex="1" parent="9VtdKncW4o68JJ42P7iB-4">
          <mxGeometry x="330" y="41" width="30" height="30" as="geometry" />
        </mxCell>
        <mxCell id="9VtdKncW4o68JJ42P7iB-1" value="1月" style="text;html=1;strokeColor=none;fillColor=none;align=center;verticalAlign=middle;whiteSpace=wrap;rounded=0;" vertex="1" parent="9VtdKncW4o68JJ42P7iB-4">
          <mxGeometry x="7" y="37" width="27" height="30" as="geometry" />
        </mxCell>
        <mxCell id="9VtdKncW4o68JJ42P7iB-5" value="" style="group" vertex="1" connectable="0" parent="1">
          <mxGeometry x="113" y="496" width="447" height="120" as="geometry" />
        </mxCell>
        <mxCell id="U0FOJSvKqeGuuWeJRaHo-52" value="" style="rounded=0;whiteSpace=wrap;html=1;fontFamily=Helvetica;fontSize=14;opacity=80;strokeColor=#67c5f4;fillColor=#edf7f3;" vertex="1" parent="9VtdKncW4o68JJ42P7iB-5">
          <mxGeometry width="447" height="120" as="geometry" />
        </mxCell>
        <mxCell id="zOyWCexYzGYS8uX46i4J-2" value="消费预估" style="rounded=0;whiteSpace=wrap;html=1;fillColor=#99CCFF;strokeColor=#007fff;opacity=59;gradientColor=none;" parent="9VtdKncW4o68JJ42P7iB-5" vertex="1">
          <mxGeometry x="43" y="91" width="70" height="20" as="geometry" />
        </mxCell>
        <mxCell id="zOyWCexYzGYS8uX46i4J-7" value="" style="endArrow=none;html=1;rounded=0;fontFamily=Helvetica;fontSize=12;fontColor=#ffffff;dashed=1;strokeColor=#007FFF;entryX=0.097;entryY=1.055;entryDx=0;entryDy=0;entryPerimeter=0;" parent="9VtdKncW4o68JJ42P7iB-5" edge="1" target="U0FOJSvKqeGuuWeJRaHo-1">
          <mxGeometry x="1" y="-150" width="50" height="50" relative="1" as="geometry">
            <mxPoint x="48" y="68" as="sourcePoint" />
            <mxPoint x="47.48000000000002" y="44.02999999999997" as="targetPoint" />
            <mxPoint as="offset" />
          </mxGeometry>
        </mxCell>
        <mxCell id="U0FOJSvKqeGuuWeJRaHo-1" value="&lt;font style=&quot;font-size: 12px;&quot; color=&quot;#333333&quot;&gt;新购12个月（¥240）&lt;/font&gt;" style="rounded=0;whiteSpace=wrap;html=1;fillColor=none;strokeColor=#23aa72;fontColor=#ffffff;opacity=85;" vertex="1" parent="9VtdKncW4o68JJ42P7iB-5">
          <mxGeometry x="7" y="11" width="430" height="30" as="geometry" />
        </mxCell>
        <mxCell id="U0FOJSvKqeGuuWeJRaHo-2" value="" style="endArrow=none;html=1;rounded=0;fontFamily=Helvetica;fontSize=12;fontColor=#ffffff;dashed=1;strokeColor=#007FFF;" edge="1" parent="9VtdKncW4o68JJ42P7iB-5">
          <mxGeometry x="1" y="-150" width="50" height="50" relative="1" as="geometry">
            <mxPoint x="107" y="68" as="sourcePoint" />
            <mxPoint x="107" y="38" as="targetPoint" />
            <mxPoint as="offset" />
          </mxGeometry>
        </mxCell>
        <mxCell id="U0FOJSvKqeGuuWeJRaHo-3" value="" style="endArrow=none;html=1;rounded=0;fontFamily=Helvetica;fontSize=12;fontColor=#ffffff;dashed=1;strokeColor=#007FFF;" edge="1" parent="9VtdKncW4o68JJ42P7iB-5">
          <mxGeometry x="1" y="-150" width="50" height="50" relative="1" as="geometry">
            <mxPoint x="107" y="70" as="sourcePoint" />
            <mxPoint x="47" y="70" as="targetPoint" />
            <mxPoint as="offset" />
          </mxGeometry>
        </mxCell>
        <mxCell id="U0FOJSvKqeGuuWeJRaHo-5" value="30天" style="text;html=1;strokeColor=none;fillColor=none;align=center;verticalAlign=middle;whiteSpace=wrap;rounded=0;" vertex="1" parent="9VtdKncW4o68JJ42P7iB-5">
          <mxGeometry x="49" y="42" width="60" height="30" as="geometry" />
        </mxCell>
        <mxCell id="U0FOJSvKqeGuuWeJRaHo-7" value="" style="endArrow=none;html=1;rounded=0;fontFamily=Helvetica;fontSize=12;fontColor=#ffffff;strokeColor=#007FFF;startArrow=classic;startFill=1;" edge="1" parent="9VtdKncW4o68JJ42P7iB-5">
          <mxGeometry x="1" y="-150" width="50" height="50" relative="1" as="geometry">
            <mxPoint x="78" y="91" as="sourcePoint" />
            <mxPoint x="77.6" y="70" as="targetPoint" />
            <mxPoint as="offset" />
          </mxGeometry>
        </mxCell>
        <mxCell id="U0FOJSvKqeGuuWeJRaHo-8" value="1月" style="text;html=1;strokeColor=none;fillColor=none;align=center;verticalAlign=middle;whiteSpace=wrap;rounded=0;" vertex="1" parent="9VtdKncW4o68JJ42P7iB-5">
          <mxGeometry x="6" y="36" width="27" height="30" as="geometry" />
        </mxCell>
        <mxCell id="U0FOJSvKqeGuuWeJRaHo-9" value="12月" style="text;html=1;strokeColor=none;fillColor=none;align=center;verticalAlign=middle;whiteSpace=wrap;rounded=0;" vertex="1" parent="9VtdKncW4o68JJ42P7iB-5">
          <mxGeometry x="257" y="36" width="60" height="30" as="geometry" />
        </mxCell>
        <mxCell id="9VtdKncW4o68JJ42P7iB-6" value="" style="group" vertex="1" connectable="0" parent="1">
          <mxGeometry x="111" y="828" width="449" height="120" as="geometry" />
        </mxCell>
        <mxCell id="U0FOJSvKqeGuuWeJRaHo-55" value="" style="rounded=0;whiteSpace=wrap;html=1;fontFamily=Helvetica;fontSize=14;opacity=80;strokeColor=#67c5f4;fillColor=#edf7f3;" vertex="1" parent="9VtdKncW4o68JJ42P7iB-6">
          <mxGeometry width="449" height="120" as="geometry" />
        </mxCell>
        <mxCell id="U0FOJSvKqeGuuWeJRaHo-31" value="消费预估" style="rounded=0;whiteSpace=wrap;html=1;fillColor=#99CCFF;strokeColor=#007fff;opacity=59;gradientColor=none;" vertex="1" parent="9VtdKncW4o68JJ42P7iB-6">
          <mxGeometry x="294" y="91" width="70" height="20" as="geometry" />
        </mxCell>
        <mxCell id="U0FOJSvKqeGuuWeJRaHo-32" value="&lt;font style=&quot;font-size: 12px;&quot; color=&quot;#333333&quot;&gt;新购12个月（¥240）&lt;/font&gt;" style="rounded=0;whiteSpace=wrap;html=1;fillColor=none;strokeColor=#23aa72;fontColor=#ffffff;opacity=85;" vertex="1" parent="9VtdKncW4o68JJ42P7iB-6">
          <mxGeometry x="9" y="12" width="320" height="30" as="geometry" />
        </mxCell>
        <mxCell id="U0FOJSvKqeGuuWeJRaHo-33" value="" style="endArrow=none;html=1;rounded=0;fontFamily=Helvetica;fontSize=12;fontColor=#ffffff;dashed=1;strokeColor=#007FFF;" edge="1" parent="9VtdKncW4o68JJ42P7iB-6">
          <mxGeometry x="1" y="-150" width="50" height="50" relative="1" as="geometry">
            <mxPoint x="299" y="69" as="sourcePoint" />
            <mxPoint x="299" y="39" as="targetPoint" />
            <mxPoint as="offset" />
          </mxGeometry>
        </mxCell>
        <mxCell id="U0FOJSvKqeGuuWeJRaHo-34" value="" style="endArrow=none;html=1;rounded=0;fontFamily=Helvetica;fontSize=12;fontColor=#ffffff;dashed=1;strokeColor=#007FFF;" edge="1" parent="9VtdKncW4o68JJ42P7iB-6">
          <mxGeometry x="1" y="-150" width="50" height="50" relative="1" as="geometry">
            <mxPoint x="358" y="70" as="sourcePoint" />
            <mxPoint x="298" y="70" as="targetPoint" />
            <mxPoint as="offset" />
          </mxGeometry>
        </mxCell>
        <mxCell id="U0FOJSvKqeGuuWeJRaHo-35" value="&lt;font style=&quot;font-size: 10px;&quot;&gt;15天&lt;/font&gt;" style="text;html=1;strokeColor=none;fillColor=none;align=center;verticalAlign=middle;whiteSpace=wrap;rounded=0;" vertex="1" parent="9VtdKncW4o68JJ42P7iB-6">
          <mxGeometry x="298" y="42" width="30" height="30" as="geometry" />
        </mxCell>
        <mxCell id="U0FOJSvKqeGuuWeJRaHo-36" value="" style="endArrow=none;html=1;rounded=0;fontFamily=Helvetica;fontSize=12;fontColor=#ffffff;strokeColor=#007FFF;startArrow=classic;startFill=1;" edge="1" parent="9VtdKncW4o68JJ42P7iB-6">
          <mxGeometry x="1" y="-150" width="50" height="50" relative="1" as="geometry">
            <mxPoint x="329" y="91" as="sourcePoint" />
            <mxPoint x="328.6" y="70" as="targetPoint" />
            <mxPoint as="offset" />
          </mxGeometry>
        </mxCell>
        <mxCell id="U0FOJSvKqeGuuWeJRaHo-37" value="12月" style="text;html=1;strokeColor=none;fillColor=none;align=center;verticalAlign=middle;whiteSpace=wrap;rounded=0;" vertex="1" parent="9VtdKncW4o68JJ42P7iB-6">
          <mxGeometry x="262" y="42" width="30" height="30" as="geometry" />
        </mxCell>
        <mxCell id="U0FOJSvKqeGuuWeJRaHo-38" value="" style="endArrow=none;html=1;rounded=0;fontFamily=Helvetica;fontSize=12;fontColor=#ffffff;dashed=1;strokeColor=#007FFF;" edge="1" parent="9VtdKncW4o68JJ42P7iB-6">
          <mxGeometry x="1" y="-150" width="50" height="50" relative="1" as="geometry">
            <mxPoint x="359" y="69" as="sourcePoint" />
            <mxPoint x="359" y="39" as="targetPoint" />
            <mxPoint as="offset" />
          </mxGeometry>
        </mxCell>
        <mxCell id="U0FOJSvKqeGuuWeJRaHo-39" value="&lt;font style=&quot;font-size: 10px;&quot;&gt;15天&lt;/font&gt;" style="text;html=1;strokeColor=none;fillColor=none;align=center;verticalAlign=middle;whiteSpace=wrap;rounded=0;" vertex="1" parent="9VtdKncW4o68JJ42P7iB-6">
          <mxGeometry x="330" y="42" width="30" height="30" as="geometry" />
        </mxCell>
        <mxCell id="U0FOJSvKqeGuuWeJRaHo-40" value="资源销毁" style="rounded=0;whiteSpace=wrap;html=1;fillColor=#cdcdd0;strokeColor=#ee9b4f;opacity=75;fillStyle=dashed;" vertex="1" parent="9VtdKncW4o68JJ42P7iB-6">
          <mxGeometry x="329" y="12" width="110" height="30" as="geometry" />
        </mxCell>
        <mxCell id="9VtdKncW4o68JJ42P7iB-2" value="1月" style="text;html=1;strokeColor=none;fillColor=none;align=center;verticalAlign=middle;whiteSpace=wrap;rounded=0;" vertex="1" parent="9VtdKncW4o68JJ42P7iB-6">
          <mxGeometry x="5" y="38" width="27" height="30" as="geometry" />
        </mxCell>
        <mxCell id="9VtdKncW4o68JJ42P7iB-7" value="" style="group" vertex="1" connectable="0" parent="1">
          <mxGeometry x="111" y="998" width="449" height="120" as="geometry" />
        </mxCell>
        <mxCell id="U0FOJSvKqeGuuWeJRaHo-56" value="" style="rounded=0;whiteSpace=wrap;html=1;fontFamily=Helvetica;fontSize=14;opacity=80;strokeColor=#67c5f4;fillColor=#edf7f3;" vertex="1" parent="9VtdKncW4o68JJ42P7iB-7">
          <mxGeometry width="449" height="120" as="geometry" />
        </mxCell>
        <mxCell id="U0FOJSvKqeGuuWeJRaHo-41" value="消费预估" style="rounded=0;whiteSpace=wrap;html=1;fillColor=#99CCFF;strokeColor=#007fff;opacity=59;gradientColor=none;" vertex="1" parent="9VtdKncW4o68JJ42P7iB-7">
          <mxGeometry x="294" y="91" width="70" height="20" as="geometry" />
        </mxCell>
        <mxCell id="U0FOJSvKqeGuuWeJRaHo-42" value="&lt;font style=&quot;font-size: 12px;&quot; color=&quot;#333333&quot;&gt;新购12个月（¥240）&lt;/font&gt;" style="rounded=0;whiteSpace=wrap;html=1;fillColor=none;strokeColor=#23aa72;fontColor=#ffffff;opacity=85;" vertex="1" parent="9VtdKncW4o68JJ42P7iB-7">
          <mxGeometry x="9" y="12" width="320" height="30" as="geometry" />
        </mxCell>
        <mxCell id="U0FOJSvKqeGuuWeJRaHo-43" value="" style="endArrow=none;html=1;rounded=0;fontFamily=Helvetica;fontSize=12;fontColor=#ffffff;dashed=1;strokeColor=#007FFF;" edge="1" parent="9VtdKncW4o68JJ42P7iB-7">
          <mxGeometry x="1" y="-150" width="50" height="50" relative="1" as="geometry">
            <mxPoint x="299" y="69" as="sourcePoint" />
            <mxPoint x="299" y="39" as="targetPoint" />
            <mxPoint as="offset" />
          </mxGeometry>
        </mxCell>
        <mxCell id="U0FOJSvKqeGuuWeJRaHo-44" value="" style="endArrow=none;html=1;rounded=0;fontFamily=Helvetica;fontSize=12;fontColor=#ffffff;dashed=1;strokeColor=#007FFF;" edge="1" parent="9VtdKncW4o68JJ42P7iB-7">
          <mxGeometry x="1" y="-150" width="50" height="50" relative="1" as="geometry">
            <mxPoint x="358" y="70" as="sourcePoint" />
            <mxPoint x="298" y="70" as="targetPoint" />
            <mxPoint as="offset" />
          </mxGeometry>
        </mxCell>
        <mxCell id="U0FOJSvKqeGuuWeJRaHo-45" value="&lt;font style=&quot;font-size: 10px;&quot;&gt;15天&lt;/font&gt;" style="text;html=1;strokeColor=none;fillColor=none;align=center;verticalAlign=middle;whiteSpace=wrap;rounded=0;" vertex="1" parent="9VtdKncW4o68JJ42P7iB-7">
          <mxGeometry x="298" y="42" width="30" height="30" as="geometry" />
        </mxCell>
        <mxCell id="U0FOJSvKqeGuuWeJRaHo-46" value="" style="endArrow=none;html=1;rounded=0;fontFamily=Helvetica;fontSize=12;fontColor=#ffffff;strokeColor=#007FFF;startArrow=classic;startFill=1;" edge="1" parent="9VtdKncW4o68JJ42P7iB-7">
          <mxGeometry x="1" y="-150" width="50" height="50" relative="1" as="geometry">
            <mxPoint x="329" y="91" as="sourcePoint" />
            <mxPoint x="328.6" y="70" as="targetPoint" />
            <mxPoint as="offset" />
          </mxGeometry>
        </mxCell>
        <mxCell id="U0FOJSvKqeGuuWeJRaHo-47" value="12月" style="text;html=1;strokeColor=none;fillColor=none;align=center;verticalAlign=middle;whiteSpace=wrap;rounded=0;" vertex="1" parent="9VtdKncW4o68JJ42P7iB-7">
          <mxGeometry x="262" y="42" width="30" height="30" as="geometry" />
        </mxCell>
        <mxCell id="U0FOJSvKqeGuuWeJRaHo-48" value="" style="endArrow=none;html=1;rounded=0;fontFamily=Helvetica;fontSize=12;fontColor=#ffffff;dashed=1;strokeColor=#007FFF;" edge="1" parent="9VtdKncW4o68JJ42P7iB-7">
          <mxGeometry x="1" y="-150" width="50" height="50" relative="1" as="geometry">
            <mxPoint x="359" y="69" as="sourcePoint" />
            <mxPoint x="359" y="39" as="targetPoint" />
            <mxPoint as="offset" />
          </mxGeometry>
        </mxCell>
        <mxCell id="U0FOJSvKqeGuuWeJRaHo-49" value="&lt;font style=&quot;font-size: 10px;&quot;&gt;15天&lt;/font&gt;" style="text;html=1;strokeColor=none;fillColor=none;align=center;verticalAlign=middle;whiteSpace=wrap;rounded=0;" vertex="1" parent="9VtdKncW4o68JJ42P7iB-7">
          <mxGeometry x="330" y="42" width="30" height="30" as="geometry" />
        </mxCell>
        <mxCell id="U0FOJSvKqeGuuWeJRaHo-50" value="" style="rounded=0;whiteSpace=wrap;html=1;fillColor=#ffffff;strokeColor=#ee9b4f;opacity=75;fillStyle=auto;" vertex="1" parent="9VtdKncW4o68JJ42P7iB-7">
          <mxGeometry x="329" y="12" width="110" height="30" as="geometry" />
        </mxCell>
        <mxCell id="U0FOJSvKqeGuuWeJRaHo-51" value="按需计费（1元/天）" style="text;html=1;strokeColor=none;fillColor=none;align=center;verticalAlign=middle;whiteSpace=wrap;rounded=0;" vertex="1" parent="9VtdKncW4o68JJ42P7iB-7">
          <mxGeometry x="335" y="13" width="109" height="30" as="geometry" />
        </mxCell>
        <mxCell id="9VtdKncW4o68JJ42P7iB-3" value="1月" style="text;html=1;strokeColor=none;fillColor=none;align=center;verticalAlign=middle;whiteSpace=wrap;rounded=0;" vertex="1" parent="9VtdKncW4o68JJ42P7iB-7">
          <mxGeometry x="6" y="38" width="27" height="30" as="geometry" />
        </mxCell>
      </root>
    </mxGraphModel>
  </diagram>
</mxfile>
